# xmcd
#
# Track frame offsets:
#  150
#  12441
#  24798
#  35631
#  46862
#  58320
#  69666
#  81953
#  95160
#  106739
#  119292
#  130926
#  144265
#  157725
#  169796
#  181013
#  194289
#  208223
#
# Disc length: 2926 seconds
#
# Revision: 0
# Processed by: cddbd v1.5.1PL2 Copyright (c) Steve Scherf et al.
# Submitted via: Collectorz.com_Music_Collector 6.9
#
DISCID=f10b6c12
DTITLE=Bob Wills - Papas Jumpin 2
DYEAR=1976
DGENRE=Country
TTITLE0=Keeper Of My Heart
TTITLE1=I'll Have Somebody Else
TTITLE2=Thorn In My Heart
TTITLE3=Playboy Chimes
TTITLE4=Texas Drummer Boy
TTITLE5=I Married The Rose Of San Antone
TTITLE6=Ida Red Likes The Boogie
TTITLE7=The Warm, Red Wine
TTITLE8=Ain't Got Nobody
TTITLE9=Boot Heel Drag
TTITLE10=Nothin' But Trouble
TTITLE11=Bob Wills Square Dance No.1
TTITLE12=Bob Wills Square Dance No.2
TTITLE13=A King Without A Queen
TTITLE14=Hold Your Tears (Unacc. For)
TTITLE15=Bob Wills Square Dance No.3
TTITLE16=Bob Wills Square Dance No.4
TTITLE17=When It's Christmas On The Range
EXTD=
EXTT0=
EXTT1=
EXTT2=
EXTT3=
EXTT4=
EXTT5=
EXTT6=
EXTT7=
EXTT8=
EXTT9=
EXTT10=
EXTT11=
EXTT12=
EXTT13=
EXTT14=
EXTT15=
EXTT16=
EXTT17=
PLAYORDER=
